<?xml version="1.0" encoding="UTF-8" standalone="no"?>
<!-- Generator: Adobe Illustrator 17.1.0, SVG Export Plug-In . SVG Version: 6.00 Build 0)  -->

<svg
   xmlns:dc="http://purl.org/dc/elements/1.1/"
   xmlns:cc="http://creativecommons.org/ns#"
   xmlns:rdf="http://www.w3.org/1999/02/22-rdf-syntax-ns#"
   xmlns:svg="http://www.w3.org/2000/svg"
   xmlns="http://www.w3.org/2000/svg"
   xmlns:sodipodi="http://sodipodi.sourceforge.net/DTD/sodipodi-0.dtd"
   xmlns:inkscape="http://www.inkscape.org/namespaces/inkscape"
   version="1.1"
   id="Laag_1"
   x="0px"
   y="0px"
   viewBox="0 0 190 70"
   enable-background="new 0 0 190 70"
   xml:space="preserve"
   sodipodi:docname="politie_logo.svg"
   inkscape:version="0.92.5 (2060ec1f9f, 2020-04-08)"><metadata
   id="metadata3799"><rdf:RDF><cc:Work
       rdf:about=""><dc:format>image/svg+xml</dc:format><dc:type
         rdf:resource="http://purl.org/dc/dcmitype/StillImage" /></cc:Work></rdf:RDF></metadata><defs
   id="defs3797">
	
	
	
</defs><sodipodi:namedview
   pagecolor="#ffffff"
   bordercolor="#666666"
   borderopacity="1"
   objecttolerance="10"
   gridtolerance="10"
   guidetolerance="10"
   inkscape:pageopacity="0"
   inkscape:pageshadow="2"
   inkscape:window-width="2477"
   inkscape:window-height="1056"
   id="namedview3795"
   showgrid="false"
   inkscape:zoom="12.521053"
   inkscape:cx="95"
   inkscape:cy="25.416141"
   inkscape:window-x="1922"
   inkscape:window-y="261"
   inkscape:window-maximized="0"
   inkscape:current-layer="Laag_1" />
<polygon
   fill="#004682"
   points="178.9,50.1 178.9,44.4 188.1,44.4 188.1,39.6 178.9,39.6 178.9,34.4 188.8,34.4 188.8,29.7   172.2,29.7 172.2,54.8 188.9,54.8 188.9,50.1 "
   id="polygon3776" />
<rect
   x="150.1"
   y="29.7"
   fill="#004682"
   width="6.7"
   height="25.2"
   id="rect3778" />
<polygon
   fill="#004682"
   points="118.9,34.6 125.1,34.6 125.1,54.8 131.8,54.8 131.8,34.6 138,34.6 138,29.7 118.9,29.7 "
   id="polygon3780" />
<rect
   x="100.1"
   y="29.7"
   fill="#004682"
   width="6.7"
   height="25.2"
   id="rect3782" />
<polygon
   fill="#004682"
   points="79.8,29.7 73.1,29.7 73.1,54.8 89.3,54.8 89.3,49.9 79.8,49.9 "
   id="polygon3784" />
<g
   id="g3809"><path
     d="M 9.5,44.1 H 7.8 v -9.7 h 1.7 c 2.3,0 4.4,2.2 4.4,4.8 0,2.7 -2,4.9 -4.4,4.9 M 9.1,29.7 h -8 v 25.2 h 6.7 v -5.6 h 2 c 6.7,0.2 10.7,-4.7 10.6,-9.9 -0.1,-5.8 -3.6,-9.7 -11.3,-9.7"
     id="path3786"
     inkscape:connector-curvature="0"
     style="fill:#004682" /><path
     d="m 44.3,37.6 c -0.4,-1.3 -0.6,-1.8 -0.6,-3.5 0,-3.3 3.5,-6 3.5,-6 2.4,-2.1 4,-4 4.3,-5.9 C 51.8,20.4 51,18 51,18 c 0.9,0.3 1.3,0.6 1.7,1.1 0.4,0.4 0.8,1.1 0.8,1.1 0.5,-1.6 0.4,-2.8 0.1,-3.9 -0.3,-1.2 -0.8,-2.3 -2,-3.4 -1.4,-1.2 -2.5,-1.5 -2.5,-1.5 0.3,0.6 0.5,1.5 0.4,3.3 -0.2,1.8 -0.6,2.9 -1.9,4.5 -1.1,1.6 -3.5,3.4 -4.8,5.3 -1.3,1.7 -1.8,3.3 -1.9,4.7 -0.1,2.1 0.7,4.3 0.7,4.3 -0.8,-0.5 -1.8,-1.3 -2.4,-2.5 -0.7,-1.3 -1,-2.5 -1.1,-4.7 0,-1.9 0.7,-4.7 2.2,-6.6 1.1,-1.3 3.7,-3.9 4.7,-5.9 1,-2 0.8,-3.1 0.8,-3.9 0,-0.8 -0.4,-2 -0.4,-2 0.6,0 1.4,0.5 1.6,0.8 0.4,0.4 0.8,0.7 0.8,0.7 C 47.9,8.8 48,7.7 47.7,6.3 47.3,4.2 46.3,3 44.9,2 43.4,0.8 42.1,0.9 42.1,0.9 c 0.6,0.8 1,1.6 1.2,2.8 0.2,1.2 0.2,2.5 -0.4,4 -0.7,1.7 -2.7,3.2 -4.2,4.7 -1.5,1.5 -2.8,3 -3.8,5.1 -1.2,2.5 -1.3,4.4 -0.9,6.9 0.5,2.9 2.1,4.7 2.1,4.7 -1.2,-0.4 -2.2,-1.2 -2.9,-1.9 -0.7,-0.8 -1.1,-1.6 -1.4,-2.3 L 24,30.2 v 8 L 45,55.9 66.1,38.2 V 35.5 L 45.2,53 V 50.3 L 66.1,32.8 V 30.4 L 54.6,22.8 c 0.2,0.8 0.4,2.7 -0.7,5 -1.4,2.9 -4.8,5.3 -5.9,5.9 -1.3,0.8 -2,1.6 -2.2,2.4 -0.1,0.4 -0.3,1 -0.1,1.7 v 0 c 1.4,0.3 2.5,1.5 2.5,3.1 0,1.8 -1.4,3.2 -3.2,3.2 -1.8,0 -3.2,-1.4 -3.2,-3.2 -0.1,-1.7 1,-3 2.5,-3.3 z"
     id="path3790"
     inkscape:connector-curvature="0"
     style="fill:#be965a" /></g>
</svg>